<svg width="50" height="50" viewBox="0 0 50 50" fill="none" xmlns="http://www.w3.org/2000/svg">
<path d="M5.75 49.1666C4.2375 49.1666 2.94225 48.6929 1.86425 47.7456C0.786254 46.7983 0.248171 45.6608 0.250005 44.3333V10.4999C0.250005 9.17076 0.789005 8.03251 1.867 7.08518C2.945 6.13784 4.23934 5.66498 5.75 5.66659H8.5V3.24993C8.5 2.5652 8.764 1.99084 9.292 1.52684C9.82 1.06284 10.4727 0.831649 11.25 0.83326C12.0292 0.83326 12.6828 1.06526 13.2108 1.52926C13.7388 1.99326 14.0018 2.56682 14 3.24993V5.66659H36V3.24993C36 2.5652 36.264 1.99084 36.792 1.52684C37.32 1.06284 37.9727 0.831649 38.75 0.83326C39.5292 0.83326 40.1828 1.06526 40.7108 1.52926C41.2388 1.99326 41.5018 2.56682 41.5 3.24993V5.66659H44.25C45.7625 5.66659 47.0578 6.14026 48.1357 7.08759C49.2138 8.03493 49.7518 9.17237 49.75 10.4999V44.3333C49.75 45.6624 49.211 46.8007 48.133 47.748C47.055 48.6953 45.7607 49.1682 44.25 49.1666H5.75ZM5.75 44.3333H44.25V20.1666H5.75V44.3333ZM25 29.8333C24.2208 29.8333 23.5673 29.6013 23.0393 29.1373C22.5113 28.6733 22.2482 28.0997 22.25 27.4166C22.25 26.7319 22.514 26.1575 23.042 25.6935C23.57 25.2295 24.2227 24.9983 25 24.9999C25.7792 24.9999 26.4328 25.2319 26.9608 25.6959C27.4888 26.1599 27.7518 26.7335 27.75 27.4166C27.75 28.1013 27.486 28.6757 26.958 29.1397C26.43 29.6037 25.7773 29.8349 25 29.8333ZM14 29.8333C13.2208 29.8333 12.5673 29.6013 12.0393 29.1373C11.5113 28.6733 11.2482 28.0997 11.25 27.4166C11.25 26.7319 11.514 26.1575 12.042 25.6935C12.57 25.2295 13.2227 24.9983 14 24.9999C14.7792 24.9999 15.4328 25.2319 15.9608 25.6959C16.4888 26.1599 16.7518 26.7335 16.75 27.4166C16.75 28.1013 16.486 28.6757 15.958 29.1397C15.43 29.6037 14.7773 29.8349 14 29.8333ZM36 29.8333C35.2208 29.8333 34.5673 29.6013 34.0393 29.1373C33.5113 28.6733 33.2482 28.0997 33.25 27.4166C33.25 26.7319 33.514 26.1575 34.042 25.6935C34.57 25.2295 35.2227 24.9983 36 24.9999C36.7792 24.9999 37.4328 25.2319 37.9608 25.6959C38.4888 26.1599 38.7518 26.7335 38.75 27.4166C38.75 28.1013 38.486 28.6757 37.958 29.1397C37.43 29.6037 36.7773 29.8349 36 29.8333ZM25 39.4999C24.2208 39.4999 23.5673 39.2679 23.0393 38.8039C22.5113 38.3399 22.2482 37.7664 22.25 37.0833C22.25 36.3985 22.514 35.8242 23.042 35.3602C23.57 34.8962 24.2227 34.665 25 34.6666C25.7792 34.6666 26.4328 34.8986 26.9608 35.3626C27.4888 35.8266 27.7518 36.4002 27.75 37.0833C27.75 37.768 27.486 38.3423 26.958 38.8063C26.43 39.2703 25.7773 39.5015 25 39.4999ZM14 39.4999C13.2208 39.4999 12.5673 39.2679 12.0393 38.8039C11.5113 38.3399 11.2482 37.7664 11.25 37.0833C11.25 36.3985 11.514 35.8242 12.042 35.3602C12.57 34.8962 13.2227 34.665 14 34.6666C14.7792 34.6666 15.4328 34.8986 15.9608 35.3626C16.4888 35.8266 16.7518 36.4002 16.75 37.0833C16.75 37.768 16.486 38.3423 15.958 38.8063C15.43 39.2703 14.7773 39.5015 14 39.4999ZM36 39.4999C35.2208 39.4999 34.5673 39.2679 34.0393 38.8039C33.5113 38.3399 33.2482 37.7664 33.25 37.0833C33.25 36.3985 33.514 35.8242 34.042 35.3602C34.57 34.8962 35.2227 34.665 36 34.6666C36.7792 34.6666 37.4328 34.8986 37.9608 35.3626C38.4888 35.8266 38.7518 36.4002 38.75 37.0833C38.75 37.768 38.486 38.3423 37.958 38.8063C37.43 39.2703 36.7773 39.5015 36 39.4999Z" fill="#060606"/>
</svg>
