<svg width="19" height="18" viewBox="0 0 19 18" fill="none" xmlns="http://www.w3.org/2000/svg">
<path d="M0.106513 12.6206C0.0235031 15.0406 0.438555 16.9606 0.801725 17.3106C1.1649 17.6606 3.16752 18.0706 5.66821 17.9806L0.106513 12.6206Z" fill="#F8CC04"/>
<path d="M10.5451 0.280273C8.1274 0.700273 5.57483 1.62027 3.67597 3.46027C1.77711 5.30027 0.812116 7.75027 0.376312 10.0803L8.29342 17.7103C10.7215 17.3003 13.2637 16.3703 15.1625 14.5303C17.0614 12.6903 18.0264 10.2403 18.4622 7.91027L10.5451 0.280273ZM7.24542 12.5003L5.79274 11.1003L11.6035 5.50027L13.0561 6.90027L7.24542 12.5003Z" fill="#F8CC04"/>
<path d="M18.7423 5.37992C18.8253 2.95992 18.4103 1.03992 18.0471 0.689917C17.6839 0.339917 15.6813 -0.0700832 13.1806 0.0199169L18.7423 5.37992Z" fill="#F8CC04"/>
</svg>
