<svg width="17" height="21" viewBox="0 0 17 21" fill="none" xmlns="http://www.w3.org/2000/svg">
<path d="M8.50001 10.4998C9.02709 10.4998 9.47847 10.312 9.85414 9.93634C10.2298 9.56067 10.4173 9.10961 10.4167 8.58317C10.4167 8.05609 10.2288 7.60471 9.85318 7.22905C9.47751 6.85338 9.02645 6.66586 8.50001 6.6665C7.97293 6.6665 7.52155 6.85434 7.14588 7.23C6.77022 7.60567 6.5827 8.05673 6.58334 8.58317C6.58334 9.11025 6.77118 9.56163 7.14684 9.9373C7.52251 10.313 7.97357 10.5005 8.50001 10.4998ZM8.50001 20.0832C5.92848 17.895 4.00798 15.8627 2.73851 13.9863C1.46904 12.1098 0.833982 10.3727 0.833344 8.77484C0.833344 6.379 1.60416 4.47032 3.1458 3.0488C4.68744 1.62727 6.47218 0.916504 8.50001 0.916504C10.5285 0.916504 12.3135 1.62727 13.8552 3.0488C15.3968 4.47032 16.1673 6.379 16.1667 8.77484C16.1667 10.3721 15.5316 12.1092 14.2615 13.9863C12.9914 15.8633 11.0709 17.8956 8.50001 20.0832Z" fill="#FFC700"/>
</svg>
