<svg width="50" height="49" viewBox="0 0 50 49" fill="none" xmlns="http://www.w3.org/2000/svg">
<path d="M35.9 29.25C36.1 27.6825 36.25 26.115 36.25 24.5C36.25 22.885 36.1 21.3175 35.9 19.75H44.35C44.75 21.27 45 22.8613 45 24.5C45 26.1388 44.75 27.73 44.35 29.25M31.475 42.455C32.975 39.8188 34.125 36.9688 34.925 34H42.3C39.8779 37.9622 36.0353 40.9635 31.475 42.455ZM30.85 29.25H19.15C18.9 27.6825 18.75 26.115 18.75 24.5C18.75 22.885 18.9 21.2938 19.15 19.75H30.85C31.075 21.2938 31.25 22.885 31.25 24.5C31.25 26.115 31.075 27.6825 30.85 29.25ZM25 43.405C22.925 40.555 21.25 37.3963 20.225 34H29.775C28.75 37.3963 27.075 40.555 25 43.405ZM15 15H7.7C10.0971 11.0271 13.937 8.02103 18.5 6.545C17 9.18125 15.875 12.0313 15 15ZM7.7 34H15C15.875 36.9688 17 39.8188 18.5 42.455C13.9466 40.9627 10.1121 37.9608 7.7 34ZM5.65 29.25C5.25 27.73 5 26.1388 5 24.5C5 22.8613 5.25 21.27 5.65 19.75H14.1C13.9 21.3175 13.75 22.885 13.75 24.5C13.75 26.115 13.9 27.6825 14.1 29.25M25 5.57125C27.075 8.42125 28.75 11.6038 29.775 15H20.225C21.25 11.6038 22.925 8.42125 25 5.57125ZM42.3 15H34.925C34.1426 12.0585 32.9839 9.219 31.475 6.545C36.075 8.04125 39.9 11.0575 42.3 15ZM25 0.75C11.175 0.75 0 11.4375 0 24.5C0 30.7989 2.63392 36.8398 7.32233 41.2938C9.6438 43.4992 12.3998 45.2486 15.4329 46.4421C18.4661 47.6357 21.717 48.25 25 48.25C31.6304 48.25 37.9893 45.7478 42.6777 41.2938C47.3661 36.8398 50 30.7989 50 24.5C50 21.3811 49.3534 18.2928 48.097 15.4113C46.8406 12.5298 44.9991 9.91161 42.6777 7.70621C40.3562 5.50082 37.6002 3.75141 34.5671 2.55786C31.5339 1.36431 28.283 0.75 25 0.75Z" fill="#060606"/>
</svg>
