<svg width="50" height="45" viewBox="0 0 50 45" fill="none" xmlns="http://www.w3.org/2000/svg">
<path d="M10 34.7917H22.5V29.875H10V34.7917ZM35 34.7917H40V29.875H35V34.7917ZM10 24.9583H22.5V20.0417H10V24.9583ZM35 24.9583H40V10.2083H35V24.9583ZM10 15.125H22.5V10.2083H10V15.125ZM5 44.625C3.625 44.625 2.4475 44.1432 1.4675 43.1795C0.487504 42.2158 -0.00166242 41.0588 4.24448e-06 39.7083V5.29167C4.24448e-06 3.93959 0.490004 2.78171 1.47 1.81805C2.45 0.854379 3.62667 0.373365 5 0.375004H45C46.375 0.375004 47.5525 0.856838 48.5325 1.8205C49.5125 2.78417 50.0017 3.94123 50 5.29167V39.7083C50 41.0604 49.51 42.2183 48.53 43.182C47.55 44.1456 46.3733 44.6266 45 44.625H5ZM5 39.7083H45V5.29167H5V39.7083Z" fill="#060606"/>
</svg>
