<svg width="47" height="48" viewBox="0 0 47 48" fill="none" xmlns="http://www.w3.org/2000/svg">
<path d="M14.0417 37.9998C11.5208 37.9998 9.48124 40.0998 9.48124 42.6665C9.48124 45.2332 11.5208 47.3332 14.0417 47.3332C16.5625 47.3332 18.625 45.2332 18.625 42.6665C18.625 40.0998 16.5625 37.9998 14.0417 37.9998ZM0.291656 0.666504V5.33317H4.87499L13.125 23.0432L10.0312 28.7598C9.66457 29.4132 9.45832 30.1832 9.45832 30.9998C9.45832 33.5665 11.5208 35.6665 14.0417 35.6665H41.5417V30.9998H15.0042C14.6833 30.9998 14.4312 30.7432 14.4312 30.4165L14.5 30.1365L16.5625 26.3332H33.6354C35.3542 26.3332 36.8667 25.3765 37.6458 23.9298L45.85 8.7865C46.0391 8.43041 46.1342 8.03046 46.1261 7.62574C46.118 7.22102 46.0069 6.82536 45.8037 6.47741C45.6005 6.12947 45.3121 5.84113 44.9668 5.64058C44.6214 5.44002 44.2309 5.3341 43.8333 5.33317H9.93957L7.78541 0.666504H0.291656ZM36.9583 37.9998C34.4375 37.9998 32.3979 40.0998 32.3979 42.6665C32.3979 45.2332 34.4375 47.3332 36.9583 47.3332C39.4792 47.3332 41.5417 45.2332 41.5417 42.6665C41.5417 40.0998 39.4792 37.9998 36.9583 37.9998Z" fill="#060606"/>
</svg>
